<mxfile host="Electron" agent="Mozilla/5.0 (Windows NT 10.0; Win64; x64) AppleWebKit/537.36 (KHTML, like Gecko) draw.io/24.7.17 Chrome/128.0.6613.36 Electron/32.0.1 Safari/537.36" version="24.7.17">
  <diagram name="Страница — 1" id="dzCYCB5gnDb3ajY3XtfV">
    <mxGraphModel dx="1050" dy="629" grid="1" gridSize="10" guides="1" tooltips="1" connect="1" arrows="1" fold="1" page="1" pageScale="1" pageWidth="827" pageHeight="1169" math="0" shadow="0">
      <root>
        <mxCell id="0" />
        <mxCell id="1" parent="0" />
        <mxCell id="fB0uor6YLG-JofNZf4Os-1" value="&lt;b&gt;&lt;font style=&quot;font-size: 12px;&quot;&gt;User story&lt;/font&gt;&lt;/b&gt;&lt;div style=&quot;&quot;&gt;&lt;br&gt;&lt;/div&gt;" style="text;html=1;align=left;verticalAlign=middle;resizable=0;points=[];autosize=1;strokeColor=none;fillColor=none;" parent="1" vertex="1">
          <mxGeometry x="40" y="53" width="80" height="40" as="geometry" />
        </mxCell>
        <mxCell id="fB0uor6YLG-JofNZf4Os-2" value="&lt;div style=&quot;&quot;&gt;&lt;b style=&quot;background-color: initial;&quot;&gt;Критерии приемки&lt;/b&gt;&lt;/div&gt;" style="text;html=1;align=left;verticalAlign=middle;resizable=0;points=[];autosize=1;strokeColor=none;fillColor=none;" parent="1" vertex="1">
          <mxGeometry x="40" y="153" width="130" height="30" as="geometry" />
        </mxCell>
        <mxCell id="fB0uor6YLG-JofNZf4Os-3" value="&lt;div&gt;Я, как пользователь приложения ДомКлик,&amp;nbsp;&lt;span style=&quot;background-color: initial;&quot;&gt;хочу устанавливать диапазон цен&amp;nbsp;&lt;/span&gt;&lt;span style=&quot;background-color: initial;&quot;&gt;при поиске&amp;nbsp;&lt;/span&gt;&lt;span style=&quot;background-color: initial;&quot;&gt;недвижимости,&lt;/span&gt;&lt;/div&gt;&lt;div&gt;&lt;span style=&quot;background-color: initial;&quot;&gt;чтобы находить объекты, соответствующие моим&amp;nbsp;&lt;/span&gt;&lt;span style=&quot;background-color: initial;&quot;&gt;бюджетным ожиданиям.&lt;/span&gt;&lt;/div&gt;" style="text;html=1;align=left;verticalAlign=middle;resizable=0;points=[];autosize=1;strokeColor=none;fillColor=none;" parent="1" vertex="1">
          <mxGeometry x="40" y="93" width="610" height="40" as="geometry" />
        </mxCell>
        <mxCell id="fB0uor6YLG-JofNZf4Os-4" value="Заголовок" style="rounded=0;whiteSpace=wrap;html=1;" parent="1" vertex="1">
          <mxGeometry x="40" y="200" width="160" height="40" as="geometry" />
        </mxCell>
        <mxCell id="fB0uor6YLG-JofNZf4Os-5" value="Функциональность - Установка диапазона цен для поиска недвижимости." style="rounded=0;whiteSpace=wrap;html=1;" parent="1" vertex="1">
          <mxGeometry x="200" y="200" width="440" height="40" as="geometry" />
        </mxCell>
        <mxCell id="fB0uor6YLG-JofNZf4Os-6" value="Сценарий успеха" style="rounded=0;whiteSpace=wrap;html=1;" parent="1" vertex="1">
          <mxGeometry x="40" y="240" width="160" height="200" as="geometry" />
        </mxCell>
        <mxCell id="fB0uor6YLG-JofNZf4Os-7" value="&lt;div style=&quot;text-align: left;&quot;&gt;1. Система отображает форму установки диапазона цен.&lt;/div&gt;&lt;div&gt;&lt;div style=&quot;text-align: left;&quot;&gt;&lt;span style=&quot;background-color: rgb(255, 255, 255); font-family: Roboto, -apple-system, BlinkMacSystemFont, &amp;quot;Apple Color Emoji&amp;quot;, &amp;quot;Segoe UI&amp;quot;, Oxygen, Ubuntu, Cantarell, &amp;quot;Fira Sans&amp;quot;, &amp;quot;Droid Sans&amp;quot;, &amp;quot;Helvetica Neue&amp;quot;, sans-serif; white-space-collapse: preserve;&quot;&gt;2. Пользователь устанавливает желаемый диапазон цен и сохраняет его.&lt;/span&gt;&lt;/div&gt;&lt;span style=&quot;font-family: Roboto, -apple-system, BlinkMacSystemFont, &amp;quot;Apple Color Emoji&amp;quot;, &amp;quot;Segoe UI&amp;quot;, Oxygen, Ubuntu, Cantarell, &amp;quot;Fira Sans&amp;quot;, &amp;quot;Droid Sans&amp;quot;, &amp;quot;Helvetica Neue&amp;quot;, sans-serif; white-space-collapse: preserve; background-color: rgb(255, 255, 255);&quot;&gt;&lt;div style=&quot;text-align: left;&quot;&gt;3. Система отображает экран поиска недвижимости, устанавливая в поле &quot;Цена&quot; указанный диапазон, и отображает кнопку &quot;Сброс цены&quot;.&lt;/div&gt;&lt;/span&gt;&lt;/div&gt;&lt;div style=&quot;text-align: left;&quot;&gt;&lt;span style=&quot;font-family: Roboto, -apple-system, BlinkMacSystemFont, &amp;quot;Apple Color Emoji&amp;quot;, &amp;quot;Segoe UI&amp;quot;, Oxygen, Ubuntu, Cantarell, &amp;quot;Fira Sans&amp;quot;, &amp;quot;Droid Sans&amp;quot;, &amp;quot;Helvetica Neue&amp;quot;, sans-serif; white-space-collapse: preserve; background-color: rgb(255, 255, 255);&quot;&gt;4. Пользователь нажимает кнопку &quot;Показать объявления&quot;.&lt;/span&gt;&lt;/div&gt;&lt;div style=&quot;text-align: left;&quot;&gt;&lt;span style=&quot;font-family: Roboto, -apple-system, BlinkMacSystemFont, &amp;quot;Apple Color Emoji&amp;quot;, &amp;quot;Segoe UI&amp;quot;, Oxygen, Ubuntu, Cantarell, &amp;quot;Fira Sans&amp;quot;, &amp;quot;Droid Sans&amp;quot;, &amp;quot;Helvetica Neue&amp;quot;, sans-serif; white-space-collapse: preserve; background-color: rgb(255, 255, 255);&quot;&gt;5. Система отображает список объектов недвижимости, которые соответствуют указанному диапазону цен.&lt;/span&gt;&lt;/div&gt;&lt;div style=&quot;text-align: left;&quot;&gt;&lt;span style=&quot;font-family: Roboto, -apple-system, BlinkMacSystemFont, &amp;quot;Apple Color Emoji&amp;quot;, &amp;quot;Segoe UI&amp;quot;, Oxygen, Ubuntu, Cantarell, &amp;quot;Fira Sans&amp;quot;, &amp;quot;Droid Sans&amp;quot;, &amp;quot;Helvetica Neue&amp;quot;, sans-serif; white-space-collapse: preserve; background-color: rgb(255, 255, 255);&quot;&gt;&lt;br&gt;&lt;/span&gt;&lt;/div&gt;&lt;div style=&quot;text-align: left;&quot;&gt;&lt;b style=&quot;background-color: initial;&quot;&gt;Критерий успеха:&lt;/b&gt;&lt;span style=&quot;background-color: initial;&quot;&gt;&amp;nbsp;Пользователь получает список объектов недвижимости, соответствующих его бюджетным ожиданиям.&lt;/span&gt;&lt;span style=&quot;font-family: Roboto, -apple-system, BlinkMacSystemFont, &amp;quot;Apple Color Emoji&amp;quot;, &amp;quot;Segoe UI&amp;quot;, Oxygen, Ubuntu, Cantarell, &amp;quot;Fira Sans&amp;quot;, &amp;quot;Droid Sans&amp;quot;, &amp;quot;Helvetica Neue&amp;quot;, sans-serif; text-align: start; white-space-collapse: preserve; background-color: rgb(255, 255, 255);&quot;&gt;&lt;br&gt;&lt;/span&gt;&lt;/div&gt;" style="rounded=0;whiteSpace=wrap;html=1;" parent="1" vertex="1">
          <mxGeometry x="200" y="240" width="440" height="200" as="geometry" />
        </mxCell>
        <mxCell id="fB0uor6YLG-JofNZf4Os-8" value="Кейс 1" style="rounded=0;whiteSpace=wrap;html=1;" parent="1" vertex="1">
          <mxGeometry x="40" y="440" width="160" height="270" as="geometry" />
        </mxCell>
        <mxCell id="fB0uor6YLG-JofNZf4Os-9" value="&lt;div style=&quot;&quot;&gt;Дано:&amp;nbsp;&lt;span style=&quot;background-color: initial;&quot;&gt;Система отображает форму установки диапазона цен.&lt;/span&gt;&lt;/div&gt;&lt;div style=&quot;&quot;&gt;&lt;span style=&quot;background-color: initial;&quot;&gt;Когда:&amp;nbsp;&lt;/span&gt;&lt;span style=&quot;background-color: rgb(255, 255, 255); font-family: Roboto, -apple-system, BlinkMacSystemFont, &amp;quot;Apple Color Emoji&amp;quot;, &amp;quot;Segoe UI&amp;quot;, Oxygen, Ubuntu, Cantarell, &amp;quot;Fira Sans&amp;quot;, &amp;quot;Droid Sans&amp;quot;, &amp;quot;Helvetica Neue&amp;quot;, sans-serif; white-space-collapse: preserve;&quot;&gt;Пользователь вводит значение максимальной цены которое меньше, чем установленное значение минимальной цены.&lt;/span&gt;&lt;/div&gt;&lt;div style=&quot;&quot;&gt;&lt;span style=&quot;background-color: rgb(255, 255, 255); font-family: Roboto, -apple-system, BlinkMacSystemFont, &amp;quot;Apple Color Emoji&amp;quot;, &amp;quot;Segoe UI&amp;quot;, Oxygen, Ubuntu, Cantarell, &amp;quot;Fira Sans&amp;quot;, &amp;quot;Droid Sans&amp;quot;, &amp;quot;Helvetica Neue&amp;quot;, sans-serif; white-space-collapse: preserve;&quot;&gt;Тогда: Система не сохраняет введенное значение максимальной цены, поле &quot;До&quot; остается пустым.&lt;/span&gt;&lt;/div&gt;" style="rounded=0;whiteSpace=wrap;html=1;align=left;" parent="1" vertex="1">
          <mxGeometry x="200" y="440" width="440" height="270" as="geometry" />
        </mxCell>
        <mxCell id="fB0uor6YLG-JofNZf4Os-10" value="" style="rounded=1;whiteSpace=wrap;html=1;direction=south;" parent="1" vertex="1">
          <mxGeometry x="707" y="455" width="120" height="240" as="geometry" />
        </mxCell>
        <mxCell id="fB0uor6YLG-JofNZf4Os-11" value="&lt;div style=&quot;&quot;&gt;&lt;span style=&quot;font-size: 8px;&quot;&gt;Цена&lt;/span&gt;&lt;/div&gt;" style="text;html=1;align=left;verticalAlign=middle;resizable=0;points=[];autosize=1;strokeColor=none;fillColor=none;" parent="1" vertex="1">
          <mxGeometry x="714.5" y="525" width="40" height="30" as="geometry" />
        </mxCell>
        <mxCell id="fB0uor6YLG-JofNZf4Os-12" value="&lt;span style=&quot;font-size: 6px;&quot;&gt;&amp;nbsp; &amp;nbsp; &amp;nbsp; &amp;nbsp; &amp;nbsp; &amp;nbsp; &amp;nbsp; &amp;nbsp; &amp;nbsp; &amp;nbsp; &amp;nbsp; &amp;nbsp; &amp;nbsp; &amp;nbsp; &amp;nbsp; &amp;nbsp; &amp;nbsp; 7 000 000&lt;/span&gt;" style="rounded=1;whiteSpace=wrap;html=1;align=left;" parent="1" vertex="1">
          <mxGeometry x="717" y="568.25" width="100" height="13.5" as="geometry" />
        </mxCell>
        <mxCell id="fB0uor6YLG-JofNZf4Os-13" value="&lt;span style=&quot;font-size: 6px;&quot;&gt;До&lt;/span&gt;" style="rounded=1;whiteSpace=wrap;html=1;align=left;" parent="1" vertex="1">
          <mxGeometry x="717" y="588.5" width="100" height="13.5" as="geometry" />
        </mxCell>
        <mxCell id="fB0uor6YLG-JofNZf4Os-14" value="&lt;font style=&quot;font-size: 6px;&quot;&gt;руб.&lt;/font&gt;" style="text;html=1;align=right;verticalAlign=middle;resizable=0;points=[];autosize=1;strokeColor=none;fillColor=none;fontColor=#7A7A7A;" parent="1" vertex="1">
          <mxGeometry x="787" y="558.5" width="30" height="30" as="geometry" />
        </mxCell>
        <mxCell id="fB0uor6YLG-JofNZf4Os-15" value="&lt;span style=&quot;font-size: 6px;&quot;&gt;руб.&lt;/span&gt;" style="text;html=1;align=right;verticalAlign=middle;resizable=0;points=[];autosize=1;strokeColor=none;fillColor=none;fontColor=#7A7A7A;" parent="1" vertex="1">
          <mxGeometry x="787" y="580.4" width="30" height="30" as="geometry" />
        </mxCell>
        <mxCell id="fB0uor6YLG-JofNZf4Os-16" value="" style="rounded=1;whiteSpace=wrap;html=1;align=left;" parent="1" vertex="1">
          <mxGeometry x="717" y="608.25" width="100" height="13.5" as="geometry" />
        </mxCell>
        <mxCell id="fB0uor6YLG-JofNZf4Os-17" value="&lt;font style=&quot;font-size: 6px;&quot;&gt;Отмена&lt;/font&gt;" style="rounded=1;whiteSpace=wrap;html=1;align=center;arcSize=32;" parent="1" vertex="1">
          <mxGeometry x="717" y="608.25" width="50" height="13.5" as="geometry" />
        </mxCell>
        <mxCell id="fB0uor6YLG-JofNZf4Os-18" value="&lt;font style=&quot;font-size: 6px;&quot;&gt;Сохранить&lt;/font&gt;" style="rounded=1;whiteSpace=wrap;html=1;align=center;arcSize=32;" parent="1" vertex="1">
          <mxGeometry x="767" y="608.25" width="50" height="13.5" as="geometry" />
        </mxCell>
        <mxCell id="fB0uor6YLG-JofNZf4Os-19" value="&lt;font style=&quot;font-size: 8px;&quot;&gt;1&lt;/font&gt;" style="rounded=1;whiteSpace=wrap;html=1;align=center;arcSize=32;" parent="1" vertex="1">
          <mxGeometry x="717" y="628.5" width="25" height="10" as="geometry" />
        </mxCell>
        <mxCell id="fB0uor6YLG-JofNZf4Os-20" value="&lt;font style=&quot;font-size: 8px;&quot;&gt;2&lt;/font&gt;" style="rounded=1;whiteSpace=wrap;html=1;align=center;arcSize=32;" parent="1" vertex="1">
          <mxGeometry x="754.5" y="628.5" width="25" height="10" as="geometry" />
        </mxCell>
        <mxCell id="fB0uor6YLG-JofNZf4Os-21" value="&lt;font style=&quot;font-size: 8px;&quot;&gt;3&lt;/font&gt;" style="rounded=1;whiteSpace=wrap;html=1;align=center;arcSize=32;" parent="1" vertex="1">
          <mxGeometry x="792" y="628.5" width="25" height="10" as="geometry" />
        </mxCell>
        <mxCell id="fB0uor6YLG-JofNZf4Os-22" value="&lt;font style=&quot;font-size: 8px;&quot;&gt;4&lt;/font&gt;" style="rounded=1;whiteSpace=wrap;html=1;align=center;arcSize=32;" parent="1" vertex="1">
          <mxGeometry x="717" y="643.5" width="25" height="10" as="geometry" />
        </mxCell>
        <mxCell id="fB0uor6YLG-JofNZf4Os-23" value="&lt;font style=&quot;font-size: 8px;&quot;&gt;5&lt;/font&gt;" style="rounded=1;whiteSpace=wrap;html=1;align=center;arcSize=32;" parent="1" vertex="1">
          <mxGeometry x="754.5" y="643.5" width="25" height="10" as="geometry" />
        </mxCell>
        <mxCell id="fB0uor6YLG-JofNZf4Os-24" value="&lt;font style=&quot;font-size: 8px;&quot;&gt;6&lt;/font&gt;" style="rounded=1;whiteSpace=wrap;html=1;align=center;arcSize=32;" parent="1" vertex="1">
          <mxGeometry x="792" y="643.5" width="25" height="10" as="geometry" />
        </mxCell>
        <mxCell id="fB0uor6YLG-JofNZf4Os-25" value="&lt;font style=&quot;font-size: 8px;&quot;&gt;7&lt;/font&gt;" style="rounded=1;whiteSpace=wrap;html=1;align=center;arcSize=32;" parent="1" vertex="1">
          <mxGeometry x="717" y="658.5" width="25" height="10" as="geometry" />
        </mxCell>
        <mxCell id="fB0uor6YLG-JofNZf4Os-26" value="&lt;font style=&quot;font-size: 8px;&quot;&gt;8&lt;/font&gt;" style="rounded=1;whiteSpace=wrap;html=1;align=center;arcSize=32;" parent="1" vertex="1">
          <mxGeometry x="754.5" y="658.5" width="25" height="10" as="geometry" />
        </mxCell>
        <mxCell id="fB0uor6YLG-JofNZf4Os-27" value="&lt;font style=&quot;font-size: 8px;&quot;&gt;9&lt;/font&gt;" style="rounded=1;whiteSpace=wrap;html=1;align=center;arcSize=32;" parent="1" vertex="1">
          <mxGeometry x="792" y="658.5" width="25" height="10" as="geometry" />
        </mxCell>
        <mxCell id="fB0uor6YLG-JofNZf4Os-28" value="&lt;font style=&quot;font-size: 8px;&quot;&gt;0&lt;/font&gt;" style="rounded=1;whiteSpace=wrap;html=1;align=center;arcSize=32;" parent="1" vertex="1">
          <mxGeometry x="754.5" y="673.75" width="25" height="10" as="geometry" />
        </mxCell>
        <mxCell id="fB0uor6YLG-JofNZf4Os-29" value="" style="rounded=1;whiteSpace=wrap;html=1;align=center;arcSize=32;" parent="1" vertex="1">
          <mxGeometry x="792" y="673.75" width="25" height="10" as="geometry" />
        </mxCell>
        <mxCell id="fB0uor6YLG-JofNZf4Os-30" value="" style="verticalLabelPosition=bottom;verticalAlign=top;html=1;shape=offPageConnector;rounded=0;size=0.5;direction=south;" parent="1" vertex="1">
          <mxGeometry x="797" y="675.25" width="10" height="7" as="geometry" />
        </mxCell>
        <mxCell id="fB0uor6YLG-JofNZf4Os-31" value="&lt;font style=&quot;font-size: 8px;&quot;&gt;x&lt;/font&gt;" style="text;html=1;align=center;verticalAlign=middle;resizable=0;points=[];autosize=1;strokeColor=none;fillColor=none;" parent="1" vertex="1">
          <mxGeometry x="788" y="662" width="30" height="30" as="geometry" />
        </mxCell>
        <mxCell id="fB0uor6YLG-JofNZf4Os-32" value="&lt;font style=&quot;font-size: 6px;&quot;&gt;за кв.м&lt;/font&gt;" style="rounded=1;whiteSpace=wrap;html=1;align=center;arcSize=32;" parent="1" vertex="1">
          <mxGeometry x="787" y="548.5" width="30" height="13.5" as="geometry" />
        </mxCell>
        <mxCell id="fB0uor6YLG-JofNZf4Os-33" value="&lt;font style=&quot;font-size: 6px;&quot;&gt;за все&lt;/font&gt;" style="rounded=1;whiteSpace=wrap;html=1;align=center;arcSize=32;fillColor=#B9E0A5;" parent="1" vertex="1">
          <mxGeometry x="717" y="548.5" width="30" height="13.5" as="geometry" />
        </mxCell>
        <mxCell id="fB0uor6YLG-JofNZf4Os-34" value="&lt;div style=&quot;&quot;&gt;&lt;b style=&quot;background-color: initial;&quot;&gt;Нефункциональные требования&lt;/b&gt;&lt;/div&gt;" style="text;html=1;align=left;verticalAlign=middle;resizable=0;points=[];autosize=1;strokeColor=none;fillColor=none;" parent="1" vertex="1">
          <mxGeometry x="40" y="1020" width="220" height="30" as="geometry" />
        </mxCell>
        <mxCell id="fB0uor6YLG-JofNZf4Os-65" value="" style="rounded=1;whiteSpace=wrap;html=1;direction=south;" parent="1" vertex="1">
          <mxGeometry x="707" y="730" width="120" height="240" as="geometry" />
        </mxCell>
        <mxCell id="fB0uor6YLG-JofNZf4Os-66" value="&lt;div style=&quot;&quot;&gt;&lt;span style=&quot;font-size: 8px;&quot;&gt;Цена&lt;/span&gt;&lt;/div&gt;" style="text;html=1;align=left;verticalAlign=middle;resizable=0;points=[];autosize=1;strokeColor=none;fillColor=none;" parent="1" vertex="1">
          <mxGeometry x="714.5" y="800" width="40" height="30" as="geometry" />
        </mxCell>
        <mxCell id="fB0uor6YLG-JofNZf4Os-67" value="&lt;span style=&quot;font-size: 6px;&quot;&gt;От&lt;/span&gt;" style="rounded=1;whiteSpace=wrap;html=1;align=left;" parent="1" vertex="1">
          <mxGeometry x="717" y="843.25" width="100" height="13.5" as="geometry" />
        </mxCell>
        <mxCell id="fB0uor6YLG-JofNZf4Os-68" value="&lt;span style=&quot;font-size: 6px;&quot;&gt;&amp;nbsp; &amp;nbsp; &amp;nbsp; &amp;nbsp; &amp;nbsp; &amp;nbsp; &amp;nbsp; &amp;nbsp; &amp;nbsp; &amp;nbsp; &amp;nbsp; &amp;nbsp; &amp;nbsp; &amp;nbsp; &amp;nbsp; &amp;nbsp; 14 000 000&lt;/span&gt;" style="rounded=1;whiteSpace=wrap;html=1;align=left;" parent="1" vertex="1">
          <mxGeometry x="717" y="863.5" width="100" height="13.5" as="geometry" />
        </mxCell>
        <mxCell id="fB0uor6YLG-JofNZf4Os-69" value="&lt;font style=&quot;font-size: 6px;&quot;&gt;руб.&lt;/font&gt;" style="text;html=1;align=right;verticalAlign=middle;resizable=0;points=[];autosize=1;strokeColor=none;fillColor=none;fontColor=#7A7A7A;" parent="1" vertex="1">
          <mxGeometry x="787" y="833.5" width="30" height="30" as="geometry" />
        </mxCell>
        <mxCell id="fB0uor6YLG-JofNZf4Os-70" value="&lt;span style=&quot;font-size: 6px;&quot;&gt;руб.&lt;/span&gt;" style="text;html=1;align=right;verticalAlign=middle;resizable=0;points=[];autosize=1;strokeColor=none;fillColor=none;fontColor=#7A7A7A;" parent="1" vertex="1">
          <mxGeometry x="787" y="855.4" width="30" height="30" as="geometry" />
        </mxCell>
        <mxCell id="fB0uor6YLG-JofNZf4Os-71" value="" style="rounded=1;whiteSpace=wrap;html=1;align=left;" parent="1" vertex="1">
          <mxGeometry x="717" y="883.25" width="100" height="13.5" as="geometry" />
        </mxCell>
        <mxCell id="fB0uor6YLG-JofNZf4Os-72" value="&lt;font style=&quot;font-size: 6px;&quot;&gt;Отмена&lt;/font&gt;" style="rounded=1;whiteSpace=wrap;html=1;align=center;arcSize=32;" parent="1" vertex="1">
          <mxGeometry x="717" y="883.25" width="50" height="13.5" as="geometry" />
        </mxCell>
        <mxCell id="fB0uor6YLG-JofNZf4Os-73" value="&lt;font style=&quot;font-size: 6px;&quot;&gt;Сохранить&lt;/font&gt;" style="rounded=1;whiteSpace=wrap;html=1;align=center;arcSize=32;" parent="1" vertex="1">
          <mxGeometry x="767" y="883.25" width="50" height="13.5" as="geometry" />
        </mxCell>
        <mxCell id="fB0uor6YLG-JofNZf4Os-74" value="&lt;font style=&quot;font-size: 8px;&quot;&gt;1&lt;/font&gt;" style="rounded=1;whiteSpace=wrap;html=1;align=center;arcSize=32;" parent="1" vertex="1">
          <mxGeometry x="717" y="903.5" width="25" height="10" as="geometry" />
        </mxCell>
        <mxCell id="fB0uor6YLG-JofNZf4Os-75" value="&lt;font style=&quot;font-size: 8px;&quot;&gt;2&lt;/font&gt;" style="rounded=1;whiteSpace=wrap;html=1;align=center;arcSize=32;" parent="1" vertex="1">
          <mxGeometry x="754.5" y="903.5" width="25" height="10" as="geometry" />
        </mxCell>
        <mxCell id="fB0uor6YLG-JofNZf4Os-76" value="&lt;font style=&quot;font-size: 8px;&quot;&gt;3&lt;/font&gt;" style="rounded=1;whiteSpace=wrap;html=1;align=center;arcSize=32;" parent="1" vertex="1">
          <mxGeometry x="792" y="903.5" width="25" height="10" as="geometry" />
        </mxCell>
        <mxCell id="fB0uor6YLG-JofNZf4Os-77" value="&lt;font style=&quot;font-size: 8px;&quot;&gt;4&lt;/font&gt;" style="rounded=1;whiteSpace=wrap;html=1;align=center;arcSize=32;" parent="1" vertex="1">
          <mxGeometry x="717" y="918.5" width="25" height="10" as="geometry" />
        </mxCell>
        <mxCell id="fB0uor6YLG-JofNZf4Os-78" value="&lt;font style=&quot;font-size: 8px;&quot;&gt;5&lt;/font&gt;" style="rounded=1;whiteSpace=wrap;html=1;align=center;arcSize=32;" parent="1" vertex="1">
          <mxGeometry x="754.5" y="918.5" width="25" height="10" as="geometry" />
        </mxCell>
        <mxCell id="fB0uor6YLG-JofNZf4Os-79" value="&lt;font style=&quot;font-size: 8px;&quot;&gt;6&lt;/font&gt;" style="rounded=1;whiteSpace=wrap;html=1;align=center;arcSize=32;" parent="1" vertex="1">
          <mxGeometry x="792" y="918.5" width="25" height="10" as="geometry" />
        </mxCell>
        <mxCell id="fB0uor6YLG-JofNZf4Os-80" value="&lt;font style=&quot;font-size: 8px;&quot;&gt;7&lt;/font&gt;" style="rounded=1;whiteSpace=wrap;html=1;align=center;arcSize=32;" parent="1" vertex="1">
          <mxGeometry x="717" y="933.5" width="25" height="10" as="geometry" />
        </mxCell>
        <mxCell id="fB0uor6YLG-JofNZf4Os-81" value="&lt;font style=&quot;font-size: 8px;&quot;&gt;8&lt;/font&gt;" style="rounded=1;whiteSpace=wrap;html=1;align=center;arcSize=32;" parent="1" vertex="1">
          <mxGeometry x="754.5" y="933.5" width="25" height="10" as="geometry" />
        </mxCell>
        <mxCell id="fB0uor6YLG-JofNZf4Os-82" value="&lt;font style=&quot;font-size: 8px;&quot;&gt;9&lt;/font&gt;" style="rounded=1;whiteSpace=wrap;html=1;align=center;arcSize=32;" parent="1" vertex="1">
          <mxGeometry x="792" y="933.5" width="25" height="10" as="geometry" />
        </mxCell>
        <mxCell id="fB0uor6YLG-JofNZf4Os-83" value="&lt;font style=&quot;font-size: 8px;&quot;&gt;0&lt;/font&gt;" style="rounded=1;whiteSpace=wrap;html=1;align=center;arcSize=32;" parent="1" vertex="1">
          <mxGeometry x="754.5" y="948.75" width="25" height="10" as="geometry" />
        </mxCell>
        <mxCell id="fB0uor6YLG-JofNZf4Os-84" value="" style="rounded=1;whiteSpace=wrap;html=1;align=center;arcSize=32;" parent="1" vertex="1">
          <mxGeometry x="792" y="948.75" width="25" height="10" as="geometry" />
        </mxCell>
        <mxCell id="fB0uor6YLG-JofNZf4Os-85" value="" style="verticalLabelPosition=bottom;verticalAlign=top;html=1;shape=offPageConnector;rounded=0;size=0.5;direction=south;" parent="1" vertex="1">
          <mxGeometry x="797" y="950.25" width="10" height="7" as="geometry" />
        </mxCell>
        <mxCell id="fB0uor6YLG-JofNZf4Os-86" value="&lt;font style=&quot;font-size: 8px;&quot;&gt;x&lt;/font&gt;" style="text;html=1;align=center;verticalAlign=middle;resizable=0;points=[];autosize=1;strokeColor=none;fillColor=none;" parent="1" vertex="1">
          <mxGeometry x="788" y="937" width="30" height="30" as="geometry" />
        </mxCell>
        <mxCell id="fB0uor6YLG-JofNZf4Os-87" value="&lt;font style=&quot;font-size: 6px;&quot;&gt;за кв.м&lt;/font&gt;" style="rounded=1;whiteSpace=wrap;html=1;align=center;arcSize=32;" parent="1" vertex="1">
          <mxGeometry x="787" y="823.5" width="30" height="13.5" as="geometry" />
        </mxCell>
        <mxCell id="fB0uor6YLG-JofNZf4Os-88" value="&lt;font style=&quot;font-size: 6px;&quot;&gt;за все&lt;/font&gt;" style="rounded=1;whiteSpace=wrap;html=1;align=center;arcSize=32;fillColor=#B9E0A5;" parent="1" vertex="1">
          <mxGeometry x="717" y="823.5" width="30" height="13.5" as="geometry" />
        </mxCell>
        <mxCell id="fB0uor6YLG-JofNZf4Os-89" value="Кейс 2" style="rounded=0;whiteSpace=wrap;html=1;" parent="1" vertex="1">
          <mxGeometry x="40" y="710" width="160" height="270" as="geometry" />
        </mxCell>
        <mxCell id="fB0uor6YLG-JofNZf4Os-90" value="&lt;div style=&quot;&quot;&gt;Дано:&amp;nbsp;&lt;span style=&quot;background-color: initial;&quot;&gt;Система отображает форму установки диапазона цен.&lt;/span&gt;&lt;/div&gt;&lt;div style=&quot;&quot;&gt;&lt;span style=&quot;background-color: initial;&quot;&gt;Когда:&amp;nbsp;&lt;/span&gt;&lt;span style=&quot;background-color: rgb(255, 255, 255); font-family: Roboto, -apple-system, BlinkMacSystemFont, &amp;quot;Apple Color Emoji&amp;quot;, &amp;quot;Segoe UI&amp;quot;, Oxygen, Ubuntu, Cantarell, &amp;quot;Fira Sans&amp;quot;, &amp;quot;Droid Sans&amp;quot;, &amp;quot;Helvetica Neue&amp;quot;, sans-serif; white-space-collapse: preserve;&quot;&gt;Пользователь вводит значение минимальной цены которое больше, чем установленное значение максимальной цены.&lt;/span&gt;&lt;/div&gt;&lt;div style=&quot;&quot;&gt;&lt;span style=&quot;background-color: rgb(255, 255, 255); font-family: Roboto, -apple-system, BlinkMacSystemFont, &amp;quot;Apple Color Emoji&amp;quot;, &amp;quot;Segoe UI&amp;quot;, Oxygen, Ubuntu, Cantarell, &amp;quot;Fira Sans&amp;quot;, &amp;quot;Droid Sans&amp;quot;, &amp;quot;Helvetica Neue&amp;quot;, sans-serif; white-space-collapse: preserve;&quot;&gt;Тогда: Система не сохраняет введенное значение минимальной цены, поле &quot;От&quot; остается пустым.&lt;/span&gt;&lt;/div&gt;" style="rounded=0;whiteSpace=wrap;html=1;align=left;" parent="1" vertex="1">
          <mxGeometry x="200" y="710" width="440" height="270" as="geometry" />
        </mxCell>
        <mxCell id="t-hBZCPYG1d3a9QgjOKz-2" value="&lt;b&gt;Требования надежности:&lt;/b&gt;&lt;div&gt;1. Система должна быть доступна 99% времени.&lt;/div&gt;&lt;div&gt;&lt;b&gt;Требования производительности:&lt;/b&gt;&lt;/div&gt;&lt;div&gt;1. Форма установки диапазона цен должна открываться не более 2 секунд.&lt;/div&gt;&lt;div&gt;2. Запрос поиска объектов недвижимости должен выдерживать нагрузку 1 rps.&amp;nbsp;&lt;/div&gt;" style="text;html=1;align=left;verticalAlign=middle;resizable=0;points=[];autosize=1;strokeColor=none;fillColor=none;" vertex="1" parent="1">
          <mxGeometry x="40" y="1060" width="470" height="90" as="geometry" />
        </mxCell>
      </root>
    </mxGraphModel>
  </diagram>
</mxfile>
